<?xml version="1.0" encoding="utf-8"?>
<!-- Generator: Adobe Illustrator 25.2.3, SVG Export Plug-In . SVG Version: 6.00 Build 0)  -->
<svg version="1.1" id="Logo" xmlns="http://www.w3.org/2000/svg" xmlns:xlink="http://www.w3.org/1999/xlink" x="0px" y="0px"
	 viewBox="0 0 823.2 308.6" style="enable-background:new 0 0 823.2 308.6;" xml:space="preserve">
<style type="text/css">
	.st0{fill:#EE0000;}
</style>
<path d="M570.2,224.1h28.9v-52.9c0-12.1,7-20.6,17.4-20.6c10,0,15.2,7.1,15.2,17.1v56.4h28.9v-61.9c0-21-12.6-35.8-33-35.8
	c-13,0-22.1,5.6-28.9,15.8h-0.6v-13h-28V224.1z M513.4,126.6c-30.2,0-50.4,21.7-50.4,50.3c0,28.4,20.2,50.3,50.4,50.3
	c30.2,0,50.4-21.9,50.4-50.3C563.8,148.2,543.6,126.6,513.4,126.6z M513.2,205.7c-13.7,0-21-11.5-21-28.9c0-17.6,7.2-28.9,21-28.9
	c13.7,0,21.3,11.3,21.3,28.9C534.5,194.2,526.9,205.7,513.2,205.7z M380.6,224.1h81.2v-22.8h-46v-0.6l44-49.3v-22.2h-79.2V152h44.5
	v0.6l-44.5,49.7L380.6,224.1L380.6,224.1z M343.5,224.1h29.1v-94.9h-29.1V224.1z M276,224.1h28.9v-43.6c0-19.8,11.9-28.6,30-26.1
	h0.6v-25c-1.5-0.6-3.1-0.7-5.9-0.7c-11.3,0-18.9,5.2-25.4,16.3h-0.6v-15.8H276V224.1z M222.8,205.9c-12.8,0-20.6-8.4-22.1-21.1h68.4
	c0.2-20.4-5.2-36.7-16.5-46.9c-8-7.4-18.5-11.5-31.9-11.5c-28.6,0-48.4,21.7-48.4,50.1c0,28.6,18.9,50.4,50.3,50.4
	c11.9,0,21.3-3.1,29.1-8.5c8.3-5.8,14.3-14.1,15.9-22.4h-27.8C237.1,202.2,231.3,205.9,222.8,205.9z M221.3,147.1
	c10.2,0,17.2,7.6,18.4,18.7h-38.8C203.1,154.6,209.3,147.1,221.3,147.1z M114.5,224.1h30.4l33-94.9h-29.1l-18.6,61h-0.4l-18.6-61
	H81.5L114.5,224.1z M343.5,95.4h29.1v25.8h-29.1V95.4z"/>
<polygon class="st0" points="660.2,129.1 675,129.1 689.8,160.9 726.8,81.5 741.7,81.5 697.2,176.8 682.4,176.8 "/>
</svg>
